<svg xmlns="http://www.w3.org/2000/svg" xmlns:xlink="http://www.w3.org/1999/xlink" width="299" height="299" viewBox="0 0 299 299">
  <defs>
    <clipPath id="clip-path">
      <rect x="300" width="61" height="168" fill="none"/>
    </clipPath>
    <filter id="Elipse_499" x="0" y="0" width="299" height="299" filterUnits="userSpaceOnUse">
      <feOffset dy="3" input="SourceAlpha"/>
      <feGaussianBlur stdDeviation="1.5" result="blur"/>
      <feFlood flood-opacity="0.102"/>
      <feComposite operator="in" in2="blur"/>
      <feComposite in="SourceGraphic"/>
    </filter>
    <clipPath id="clip-path-2">
      <rect id="Rectángulo_19922" data-name="Rectángulo 19922" width="201.629" height="121.968" fill="#004aad"/>
    </clipPath>
    <clipPath id="clip-path-3">
      <rect x="279" y="-13" width="19" height="70" fill="none"/>
    </clipPath>
    <filter id="Rectángulo_19716" x="-148" y="235" width="189" height="59" filterUnits="userSpaceOnUse">
      <feOffset dy="3" input="SourceAlpha"/>
      <feGaussianBlur stdDeviation="1.5" result="blur-2"/>
      <feFlood flood-opacity="0.102"/>
      <feComposite operator="in" in2="blur-2"/>
      <feComposite in="SourceGraphic"/>
    </filter>
  </defs>
  <g id="Componente_3_1" data-name="Componente 3 – 1" transform="translate(4.5 1.5)">
    <g id="Grupo_de_desplazamiento_46" data-name="Grupo de desplazamiento 46" transform="translate(-235 61)" clip-path="url(#clip-path)" style="isolation: isolate">
      <path id="Rectángulo_19715" data-name="Rectángulo 19715" d="M84,0H380a0,0,0,0,1,0,0V168a0,0,0,0,1,0,0H84A84,84,0,0,1,0,84v0A84,84,0,0,1,84,0Z" fill="#c5e0ff"/>
      <text id="Necesito_trasladar_todos_los_enceres_de_mi_casa_o_departamento_dentro_o_fuera_de_mi_región." data-name="Necesito trasladar todos los enceres de mi casa o departamento, dentro o fuera de mi región." transform="translate(30 27)" fill="#004aad" font-size="17" font-family="OpenSans, Open Sans"><tspan x="-193.632" y="18">Necesito trasladar todos </tspan><tspan x="-192.396" y="41">los enceres de mi casa o </tspan><tspan x="-191.142" y="64">departamento, dentro o </tspan><tspan x="-150.759" y="87">fuera de mi región.</tspan></text>
    </g>
    <g id="Grupo_71938" data-name="Grupo 71938" transform="translate(-327 -256)">
      <g transform="matrix(1, 0, 0, 1, 322.5, 254.5)" filter="url(#Elipse_499)">
        <circle id="Elipse_499-2" data-name="Elipse 499" cx="145" cy="145" r="145" transform="translate(4.5 1.5)" fill="#fff"/>
      </g>
      <text id="Mudanza_Mini_Mudanza" data-name="Mudanza
Mini Mudanza" transform="translate(472 479.538)" fill="#004aad" font-size="30" font-family="OpenSans, Open Sans"><tspan x="-64.849" y="0">Mudanza</tspan><tspan font-size="20"><tspan x="-66.055" y="30">Mini Mudanza</tspan></tspan></text>
      <g id="Grupo_71953" data-name="Grupo 71953" transform="translate(371.186 325.071)">
        <g id="Grupo_71952" data-name="Grupo 71952" clip-path="url(#clip-path-2)">
          <path id="Trazado_4050" data-name="Trazado 4050" d="M184.176,85.768h13.431V66.511a2.038,2.038,0,0,0-2.039-2.038H68.245V75.364a26.205,26.205,0,0,1,12.592,10.4H140.02a26.1,26.1,0,0,1,44.156,0m17.453,9.851a3.855,3.855,0,0,1-1.325,2.872,4.823,4.823,0,0,1-3.206,1.18h-8.915a25.905,25.905,0,0,0-1.983-10h13.372a2.056,2.056,0,0,1,2.056,2.056Zm-65.617,4.052H84.844a25.934,25.934,0,0,0-1.983-10h55.131a25.933,25.933,0,0,0-1.981,10M0,52V88.872a10.823,10.823,0,0,0,10.813,10.8h21.86A26.1,26.1,0,0,1,58.758,73.586a25,25,0,0,1,4.327.365V11.738A2.038,2.038,0,0,0,61.019,9.7c-4.915.069-17.419.345-24.542,1.405-9.021,1.34-18.436,7.55-25.648,14.762A36.848,36.848,0,0,0,0,52m8.675-.951A26.419,26.419,0,0,1,16.446,32.3c5.168-5.166,11.928-9.621,18.388-10.588A169.28,169.28,0,0,1,52.906,20.7,1,1,0,0,1,53.92,21.7V47.933a3.705,3.705,0,0,1-.853,2.39,3.667,3.667,0,0,1-2.164,1.3L13.173,59.148a3.752,3.752,0,0,1-4.5-3.686ZM142.192,89.673a21.923,21.923,0,0,0-2.377,10,22.29,22.29,0,1,0,44.579,0,21.942,21.942,0,0,0-2.375-10,20.476,20.476,0,0,0-1.415-2.448c-.35-.495-.7-.99-1.079-1.457a22.3,22.3,0,0,0-34.843,0c-.38.467-.728.962-1.079,1.457a20.326,20.326,0,0,0-1.413,2.448m8.364,10a11.513,11.513,0,0,1,5.8-10,11.449,11.449,0,0,1,11.484,0,11.537,11.537,0,1,1-17.284,10m-114.079,0A22.3,22.3,0,1,0,68.245,79.516a21.511,21.511,0,0,0-5.159-1.7,22.289,22.289,0,0,0-26.609,21.86m10.74,0a11.542,11.542,0,1,1,11.542,11.541A11.549,11.549,0,0,1,47.217,99.671m48.3-71.029L131.672.433a2.027,2.027,0,0,1,2.5,0L170.34,28.642a2.038,2.038,0,0,1-1.252,3.645h-13.46V58.528a2.035,2.035,0,0,1-2.035,2.04H112.261a2.034,2.034,0,0,1-2.035-2.04V32.287H96.766a2.038,2.038,0,0,1-1.252-3.645" transform="translate(0 0)" fill="#004aad"/>
        </g>
      </g>
    </g>
    <g id="Grupo_de_desplazamiento_48" data-name="Grupo de desplazamiento 48" transform="translate(-152.5 233.5)" clip-path="url(#clip-path-3)" style="isolation: isolate">
      <g id="Componente_2_3" data-name="Componente 2 – 3" transform="translate(4.5 1.5)">
        <g transform="matrix(1, 0, 0, 1, 143.5, -236.5)" filter="url(#Rectángulo_19716)">
          <rect id="Rectángulo_19716-2" data-name="Rectángulo 19716" width="180" height="50" rx="25" transform="translate(-143.5 236.5)" fill="#fff"/>
        </g>
        <text id="COTIZAR" transform="translate(90 35)" fill="#004aad" font-size="25" font-family="OpenSans-Bold, Open Sans" font-weight="700"><tspan x="-53.406" y="0">COTIZAR</tspan></text>
      </g>
    </g>
  </g>
</svg>
