<svg xmlns="http://www.w3.org/2000/svg" xmlns:xlink="http://www.w3.org/1999/xlink" width="299" height="299" viewBox="0 0 299 299">
  <defs>
    <clipPath id="clip-path">
      <rect width="44" height="168" fill="none"/>
    </clipPath>
    <clipPath id="clip-path-2">
      <rect x="-11" y="-13" width="27" height="70" fill="none"/>
    </clipPath>
    <filter id="Rectángulo_19716" x="260" y="235" width="189" height="59" filterUnits="userSpaceOnUse">
      <feOffset dy="3" input="SourceAlpha"/>
      <feGaussianBlur stdDeviation="1.5" result="blur"/>
      <feFlood flood-opacity="0.102"/>
      <feComposite operator="in" in2="blur"/>
      <feComposite in="SourceGraphic"/>
    </filter>
    <filter id="Elipse_499" x="0" y="0" width="299" height="299" filterUnits="userSpaceOnUse">
      <feOffset dy="3" input="SourceAlpha"/>
      <feGaussianBlur stdDeviation="1.5" result="blur-2"/>
      <feFlood flood-opacity="0.102"/>
      <feComposite operator="in" in2="blur-2"/>
      <feComposite in="SourceGraphic"/>
    </filter>
  </defs>
  <g id="Componente_3_2_Estado_con_cursor_encima_" data-name="Componente 3 – 2 (Estado con cursor encima)" transform="translate(4.5 1.5)">
    <g id="Grupo_de_desplazamiento_105" data-name="Grupo de desplazamiento 105" transform="translate(145 61)" clip-path="url(#clip-path)" style="isolation: isolate">
      <path id="Rectángulo_19942" data-name="Rectángulo 19942" d="M0,0H296a84,84,0,0,1,84,84v0a84,84,0,0,1-84,84H0a0,0,0,0,1,0,0V0A0,0,0,0,1,0,0Z" fill="#c5e0ff"/>
      <text id="Lorem_ipsum_dolor_sit_amet_consetetur_sadipscing_elitr_sed_diam_nonumy_eirmod_tempor_invidunt_ut" data-name="Lorem ipsum dolor sit amet, consetetur sadipscing elitr, sed diam nonumy eirmod tempor invidunt ut" transform="translate(156 27)" fill="#004aad" font-size="17" font-family="OpenSans, Open Sans"><tspan x="0" y="18">Lorem ipsum dolor sit </tspan><tspan x="0" y="41">amet, consetetur </tspan><tspan x="0" y="64">sadipscing elitr, sed </tspan><tspan x="0" y="87">diam nonumy eirmod </tspan><tspan x="0" y="110">tempor invidunt ut</tspan></text>
    </g>
    <g id="Grupo_de_desplazamiento_106" data-name="Grupo de desplazamiento 106" transform="translate(146.5 233.5)" clip-path="url(#clip-path-2)" style="isolation: isolate">
      <g id="Componente_2_11" data-name="Componente 2 – 11" transform="translate(113.5 1.5)">
        <g transform="matrix(1, 0, 0, 1, -264.5, -236.5)" filter="url(#Rectángulo_19716)">
          <rect id="Rectángulo_19716-2" data-name="Rectángulo 19716" width="180" height="50" rx="25" transform="translate(264.5 236.5)" fill="#fff"/>
        </g>
        <text id="Registro" transform="translate(90 35)" fill="#004aad" font-size="25" font-family="OpenSans-Bold, Open Sans" font-weight="700"><tspan x="-51.569" y="0">Registro</tspan></text>
      </g>
    </g>
    <g id="Grupo_71938" data-name="Grupo 71938" transform="translate(-327 -256)">
      <g transform="matrix(1, 0, 0, 1, 322.5, 254.5)" filter="url(#Elipse_499)">
        <circle id="Elipse_499-2" data-name="Elipse 499" cx="145" cy="145" r="145" transform="translate(4.5 1.5)" fill="#c5e0ff"/>
      </g>
      <text id="Promotor" transform="translate(472 479.538)" fill="#fff" font-size="30" font-family="OpenSans, Open Sans"><tspan x="-67.705" y="0">Promotor</tspan></text>
      <path id="Unión_3" data-name="Unión 3" d="M15054.352,459h-92.977a9.64,9.64,0,0,1-7.766-3.889,11.429,11.429,0,0,1-1.852-9.47,48.156,48.156,0,0,1,21.266-29.713c9.719-6.257,22.086-9.687,34.82-9.687,13.016,0,25.055,3.285,34.813,9.542a47.858,47.858,0,0,1,21.3,29.882,11.372,11.372,0,0,1-1.883,9.446,9.519,9.519,0,0,1-7.641,3.889Zm-157.359-15.292a10.336,10.336,0,0,1-1.7-8.552,39.66,39.66,0,0,1,17.5-24.471,53.05,53.05,0,0,1,28.406-7.924c8.9,0,16.938,1.594,23.148,4.735.719.362,1.367.725,1.906,1.063a2.913,2.913,0,0,1,1.391,2.392,2.959,2.959,0,0,1-1.164,2.512,53.246,53.246,0,0,0-20.359,30.728c-.039.218-.094.459-.141.677a2.84,2.84,0,0,1-2.766,2.416H14904A8.771,8.771,0,0,1,14896.992,443.706Zm19.875-74.451a26.457,26.457,0,0,1,6.344-19.664,24.464,24.464,0,0,1,35.961.048,26.411,26.411,0,0,1,6.344,19.615c-1.023,14.736-11.922,26.718-24.312,26.718C14928.789,395.973,14917.891,383.99,14916.867,369.255Zm71.242,15.774a37.325,37.325,0,0,1-9.187-22.345c-.594-9.035,2.047-17.321,7.469-23.384a29.287,29.287,0,0,1,42.859.048c5.461,6.087,8.117,14.373,7.508,23.335a37.6,37.6,0,0,1-9.18,22.345c-5.461,6.112-12.453,9.47-19.734,9.47C15000.594,394.5,14993.6,391.141,14988.109,385.029Z" transform="translate(-14507.64 -13)" fill="#fff"/>
    </g>
  </g>
</svg>
