<svg xmlns="http://www.w3.org/2000/svg" xmlns:xlink="http://www.w3.org/1999/xlink" width="534.5" height="299" viewBox="0 0 534.5 299">
  <defs>
    <clipPath id="clip-path">
      <rect x="3" y="12" width="385" height="148" fill="none"/>
    </clipPath>
    <filter id="Elipse_500" x="235.5" y="0" width="299" height="299" filterUnits="userSpaceOnUse">
      <feOffset dy="3" input="SourceAlpha"/>
      <feGaussianBlur stdDeviation="1.5" result="blur"/>
      <feFlood flood-opacity="0.102"/>
      <feComposite operator="in" in2="blur"/>
      <feComposite in="SourceGraphic"/>
    </filter>
    <clipPath id="clip-path-2">
      <rect id="Rectángulo_19712" data-name="Rectángulo 19712" width="201.15" height="112.001" fill="#fff"/>
    </clipPath>
    <clipPath id="clip-path-3">
      <rect x="-141" y="-74" width="374" height="126" fill="none"/>
    </clipPath>
    <filter id="Rectángulo_19716" x="48.5" y="235" width="224" height="59" filterUnits="userSpaceOnUse">
      <feOffset dy="3" input="SourceAlpha"/>
      <feGaussianBlur stdDeviation="1.5" result="blur-2"/>
      <feFlood flood-opacity="0.102"/>
      <feComposite operator="in" in2="blur-2"/>
      <feComposite in="SourceGraphic"/>
    </filter>
    <filter id="Rectángulo_19716-2" x="48.5" y="175" width="189" height="59" filterUnits="userSpaceOnUse">
      <feOffset dy="3" input="SourceAlpha"/>
      <feGaussianBlur stdDeviation="1.5" result="blur-3"/>
      <feFlood flood-opacity="0.102"/>
      <feComposite operator="in" in2="blur-3"/>
      <feComposite in="SourceGraphic"/>
    </filter>
  </defs>
  <g id="Componente_1_3_tocar_" data-name="Componente 1 – 3 (tocar)" transform="translate(0 1.5)">
    <g id="Grupo_de_desplazamiento_45" data-name="Grupo de desplazamiento 45" transform="translate(-3 4)" clip-path="url(#clip-path)" style="isolation: isolate">
      <path id="Rectángulo_19714" data-name="Rectángulo 19714" d="M74,0H380a0,0,0,0,1,0,0V148a0,0,0,0,1,0,0H74A74,74,0,0,1,0,74v0A74,74,0,0,1,74,0Z" transform="translate(3 12)" fill="#c5e0ff"/>
      <text id="Lorem_ipsum_dolor_sit_amet_consetetur_sadipscing_elitr_sed_diam_nonumy_eirmod_tempor_invidunt_ut" data-name="Lorem ipsum dolor sit amet, consetetur sadipscing elitr, sed diam nonumy eirmod tempor invidunt ut" transform="translate(56 29)" fill="#004aad" font-size="17" font-family="OpenSans, Open Sans"><tspan x="-174.308" y="18">Lorem ipsum dolor sit </tspan><tspan x="-134.747" y="41">amet, consetetur </tspan><tspan x="-155.092" y="64">sadipscing elitr, sed </tspan><tspan x="-172.042" y="87">diam nonumy eirmod </tspan><tspan x="-149.082" y="110">tempor invidunt ut</tspan></text>
    </g>
    <g id="Grupo_71937" data-name="Grupo 71937" transform="translate(-425 -256)">
      <g transform="matrix(1, 0, 0, 1, 425, 254.5)" filter="url(#Elipse_500)">
        <circle id="Elipse_500-2" data-name="Elipse 500" cx="145" cy="145" r="145" transform="translate(240 1.5)" fill="#004aad"/>
      </g>
      <text id="Transportista" transform="translate(810 480.788)" fill="#fff" font-size="30" font-family="OpenSans, Open Sans"><tspan x="-93.384" y="0">Transportista</tspan></text>
      <g id="Grupo_71963" data-name="Grupo 71963" transform="translate(709 334.886)">
        <g id="Grupo_71933" data-name="Grupo 71933" clip-path="url(#clip-path-2)">
          <path id="Trazado_4032" data-name="Trazado 4032" d="M17.412,75.888H4.013V56.677a2.033,2.033,0,0,1,2.033-2.034H133.068V65.508a26.142,26.142,0,0,0-12.562,10.38H61.463a26.035,26.035,0,0,0-44.051,0M0,85.715A3.846,3.846,0,0,0,1.322,88.58a4.809,4.809,0,0,0,3.2,1.177h8.893a25.851,25.851,0,0,1,1.977-9.974H2.051A2.051,2.051,0,0,0,0,81.834Zm65.461,4.042h51.047a25.86,25.86,0,0,1,1.978-9.974h-55a25.869,25.869,0,0,1,1.976,9.974M201.151,42.2V78.984a10.8,10.8,0,0,1-10.788,10.773H168.556a26.034,26.034,0,0,0-26.024-26.023,24.993,24.993,0,0,0-4.318.363V2.033A2.034,2.034,0,0,1,140.277,0c4.9.069,17.377.344,24.484,1.4,9,1.338,18.391,7.532,25.587,14.727a36.759,36.759,0,0,1,10.8,26.068m-8.655-.949a26.353,26.353,0,0,0-7.753-18.7c-5.155-5.154-11.9-9.6-18.344-10.563a168.727,168.727,0,0,0-18.029-1.012,1,1,0,0,0-1.011,1V38.142a3.693,3.693,0,0,0,.851,2.385,3.656,3.656,0,0,0,2.159,1.292l37.64,7.511a3.743,3.743,0,0,0,4.487-3.677ZM59.3,79.784a21.876,21.876,0,0,1,2.371,9.974,22.237,22.237,0,1,1-44.474,0,21.894,21.894,0,0,1,2.369-9.974,20.4,20.4,0,0,1,1.412-2.442c.349-.494.7-.988,1.076-1.454a22.247,22.247,0,0,1,34.76,0c.379.466.727.96,1.076,1.454a20.245,20.245,0,0,1,1.41,2.442m-8.344,9.974a11.486,11.486,0,0,0-5.787-9.974,11.418,11.418,0,0,0-11.456,0,11.509,11.509,0,1,0,17.243,9.974m113.808,0a22.244,22.244,0,1,1-31.693-20.106,21.412,21.412,0,0,1,5.146-1.7,22.236,22.236,0,0,1,26.547,21.807m-10.715,0a11.514,11.514,0,1,0-11.514,11.514,11.522,11.522,0,0,0,11.514-11.514M99.524,5.486H58.274a2,2,0,0,0-2,2v41.25a2,2,0,0,0,2,2h41.25a2,2,0,0,0,2-2V7.491a2,2,0,0,0-2-2m31.538,17.619H107.431a2,2,0,0,0-2,2V48.742a2,2,0,0,0,2,2h23.632a2,2,0,0,0,2-2V25.109a2,2,0,0,0-2-2m-80.695-6.9H19.841a2,2,0,0,0-2,2V48.742a2,2,0,0,0,2,2H50.368a2,2,0,0,0,2-2V18.215a2,2,0,0,0-2-2" transform="translate(0 0)" fill="#fff"/>
        </g>
      </g>
    </g>
    <g id="Grupo_de_desplazamiento_47" data-name="Grupo de desplazamiento 47" transform="translate(184.5 238.5)" clip-path="url(#clip-path-3)" style="isolation: isolate">
      <g id="Componente_2_2" data-name="Componente 2 – 2" transform="translate(-131.5 -3.5)">
        <g transform="matrix(1, 0, 0, 1, -53, -236.5)" filter="url(#Rectángulo_19716)">
          <rect id="Rectángulo_19716-3" data-name="Rectángulo 19716" width="215" height="50" rx="25" transform="translate(53 236.5)" fill="#fff"/>
        </g>
        <text id="Independiente" transform="translate(108 35)" fill="#004aad" font-size="25" font-family="OpenSans-Bold, Open Sans" font-weight="700"><tspan x="-91.296" y="0">Independiente</tspan></text>
      </g>
      <g id="Componente_2_8" data-name="Componente 2 – 8" transform="translate(-131.5 -63.5)">
        <g transform="matrix(1, 0, 0, 1, -53, -176.5)" filter="url(#Rectángulo_19716-2)">
          <rect id="Rectángulo_19716-4" data-name="Rectángulo 19716" width="180" height="50" rx="25" transform="translate(53 176.5)" fill="#fff"/>
        </g>
        <text id="Empresa" transform="translate(90 35)" fill="#004aad" font-size="25" font-family="OpenSans-Bold, Open Sans" font-weight="700"><tspan x="-54.01" y="0">Empresa</tspan></text>
      </g>
    </g>
  </g>
</svg>
